# AST/ASF file generated using VICON BodyLanguage
# -----------------------------------------------
:version 1.10
:name VICON
:units
  mass 1.0
  length 0.45
  angle deg
:documentation
   .ast/.asf automatically generated from VICON data using
   VICON BodyBuilder and BodyLanguage model FoxedUp or BRILLIANT.MOD
:root
   order TX TY TZ RX RY RZ
   axis XYZ
   position 0 0 0  
   orientation 0 0 0 
:bonedata
  begin
     id 1 
     name lhipjoint
     direction 0.661853 -0.702389 0.261917 
     length 2.64193 
     axis 0 0 0  XYZ
  end
  begin
     id 2 
     name lfemur
     direction 0.34202 -0.939693 0  
     length 7.01722  
     axis 0 0 20  XYZ
    dof rx ry rz
    limits (-160.0 20.0)
           (-70.0 70.0)
           (-60.0 70.0)
  end
  begin
     id 3 
     name ltibia
     direction 0.34202 -0.939693 0   
     length 8.25008   
     axis 0 0 20   XYZ
    dof rx
    limits (-10.0 170.0)
  end
  begin
     id 4 
     name lfoot
     direction 0.0709916 -0.195048 0.978221   
     length 2.31941   
     axis -90 7.62852e-016 20   XYZ
    dof rx rz
    limits (-45.0 90.0)
           (-70.0 20.0)
  end
  begin
     id 5 
     name ltoes
     direction 1.53586e-011 -4.22017e-011 1   
     length 1.16486   
     axis -90 7.62852e-016 20   XYZ
    dof rx
    limits (-90.0 20.0)
  end
  begin
     id 6 
     name rhipjoint
     direction -0.638185 -0.721362 0.268992   
     length 2.57244  
     axis 0 0 0  XYZ 
  end
  begin
     id 7 
     name rfemur
     direction -0.34202 -0.939693 0   
     length 7.07017   
     axis 0 0 -20   XYZ
    dof rx ry rz
    limits (-160.0 20.0)
           (-70.0 70.0)
           (-70.0 60.0)
  end
  begin
     id 8 
     name rtibia
     direction -0.34202 -0.939693 0   
     length 8.20386   
     axis 0 0 -20   XYZ
    dof rx
    limits (-10.0 170.0)
 end
 begin
     id 9 
     name rfoot
     direction -0.0822429 -0.225961 0.970658   
     length 2.32215  
     axis -90 -7.62852e-016 -20   XYZ
    dof rx rz
    limits (-45.0 90.0)
           (-20.0 70.0)
  end
  begin
     id 10 
     name rtoes
     direction -1.53597e-011 -4.21689e-011 1   
     length 1.16333   
     axis -90 -7.62852e-016 -20   XYZ
    dof rx
    limits (-90.0 20.0)
  end
  begin
     id 11 
     name lowerback
     direction -0.0131557 0.998589 -0.0514484   
     length 2.14993   
     axis 0 0 0   XYZ
    dof rx ry rz
    limits (-20.0 45.0)
           (-30.0 30.0)
           (-30.0 30.0)
  end
  begin
     id 12 
     name upperback
     direction -0.000776481 0.999993 0.00352685   
     length 2.15301   
     axis 0 0 0   XYZ
    dof rx ry rz
    limits (-20.0 45.0)
           (-30.0 30.0)
           (-30.0 30.0)
  end
  begin
     id 13 
     name thorax
     direction 0.00438186 0.999609 0.0276143   
     length 2.15424   
     axis 0 0 0   XYZ
    dof rx ry rz
    limits (-20.0 45.0)
           (-30.0 30.0)
           (-30.0 30.0)
  end
  begin
     id 14 
     name lowerneck
     direction -0.0488006 0.998094 0.0377807   
     length 1.90481   
     axis 0 0 0   XYZ
    dof rx ry rz
    limits (-20.0 45.0)
           (-30.0 30.0)
           (-30.0 30.0)
  end
  begin
     id 15 
     name upperneck
     direction 0.0443769 0.990702 -0.12861   
     length 1.91305   
     axis 0 0 0   XYZ
    dof rx ry rz
    limits (-20.0 45.0)
           (-30.0 30.0)
           (-30.0 30.0)
  end
  begin
     id 16
     name head
     direction 0.0165599 0.998647 -0.0492982  
     length 1.92369  
     axis 0 0 0   XYZ
    dof rx ry rz
    limits (-20.0 45.0)
           (-30.0 30.0)
           (-30.0 30.0)
  end
  begin
     id 17 
     name lclavicle
     direction 0.911936 0.410197 -0.0105506  
     length 3.52622  
     axis 0 0 0   XYZ
    dof ry rz
    limits (-20.0 10.0)
           (0.0 20.0)
  end
  begin
     id 18 
     name lhumerus
     direction 1 -4.48974e-011 -2.48591e-028   
     length 5.47651   
     axis 180 -30 -90   XYZ
    dof rx ry rz
    limits (-60.0 90.0)
           (-90.0 90.0)
           (-90.0 90.0)
  end
  begin
     id 19
     name lradius
     direction 1 -4.48938e-011 -4.40099e-027   
     length 3.09058   
     axis 180 -30 -90   XYZ
    dof rx
    limits (-10.0 170.0)
  end
  begin
     id 20
     name lwrist
     direction 1 -4.49042e-011 -2.99852e-027   
     length 1.54529   
     axis 1.95339e-015 90 90   XYZ
    dof ry
    limits (-180.0 0.0)
 end
  begin
     id 21 
     name lhand
     direction 1 -4.48815e-011 -5.98193e-027   
     length 0.771611   
     axis 3.82337e-015 90 90   XYZ
    dof rx rz
    limits (-90.0 90.0)
           (-45.0 45.0)
  end
  begin
     id 22 
     name lfingers
     direction 1 -4.49034e-011 -1.1993e-026   
     length 0.622093   
     axis 7.64668e-015 90 90   XYZ
    dof rx
    limits (0.0 90.0)
  end
  begin
     id 23
     name lthumb
     direction 0.707107 -6.34867e-011 0.707107   
     length 0.893204   
     axis -90 45 -1.62303e-014   XYZ
    dof rx rz
    limits (-45.0 45.0)
           (-45.0 45.0)
  end
  begin
     id 24 
     name rclavicle
     direction -0.93442 0.355634 -0.0195692   
     length 3.62463  
     axis 0 0 0   XYZ 
    dof ry rz
    limits (-10.0 20.0)
           (-20.0 0.0)
  end
  begin
     id 25 
     name rhumerus
     direction -1 -4.48957e-011 -1.19147e-027  
     length 5.14182   
     axis 180 30 90   XYZ
    dof rx ry rz
    limits (-90.0 60.0)
           (-90.0 90.0)
           (-90.0 90.0)
  end
  begin
     id 26 
     name rradius
     direction -1 -4.48952e-011 -3.81062e-027   
     length 3.35565   
     axis 180 30 90   XYZ
    dof rx
    limits (-10.0 170.0)
  end
  begin
     id 27 
     name rwrist
     direction -1 -4.48973e-011 -2.99621e-027   
     length 1.67782   
     axis 1.95339e-015 -90 -90   XYZ
    dof ry
    limits (-180.0 0.0)
  end
  begin
     id 28
     name rhand
     direction -1 -4.48895e-011 -5.98727e-027   
     length 0.801042   
     axis 3.82337e-015 -90 -90   XYZ
    dof rx rz
    limits (-90.0 90.0)
           (-45.0 45.0)
  end
  begin
     id 29
     name rfingers
     direction -1 -4.49065e-011 -1.19972e-026   
     length 0.645821   
     axis 7.64668e-015 -90 -90   XYZ
    dof rx
    limits (0.0 90.0)
  end
  begin
     id 30
     name rthumb
     direction -0.707107 -6.34957e-011 0.707107   
     length 0.927273   
     axis -90 -45 1.62303e-014   XYZ
    dof rx rz
    limits (-45.0 45.0)
           (-45.0 45.0)
  end
:hierarchy
  begin
    root lhipjoint rhipjoint lowerback
    lhipjoint lfemur
    lfemur ltibia
    ltibia lfoot
    lfoot ltoes
    rhipjoint rfemur
    rfemur rtibia
    rtibia rfoot
    rfoot rtoes
    lowerback upperback
    upperback thorax
    thorax lowerneck lclavicle rclavicle
    lowerneck upperneck
    upperneck head
    lclavicle lhumerus
    lhumerus lradius
    lradius lwrist
    lwrist lhand lthumb
    lhand lfingers
    rclavicle rhumerus
    rhumerus rradius
    rradius rwrist
    rwrist rhand rthumb
    rhand rfingers
  end

#!OML:ASF E:\Style4\Style4.ASF
:FULLY-SPECIFIED
:DEGREES
278
root -0.283381 17.4459 -1.10635 -0.668325 -6.64338 2.95909
lowerback 9.76056 2.16332 -1.44625
upperback 7.95546 2.73832 0.672269
thorax 2.71361 1.2855 1.30721
lowerneck 0.250475 -5.25143 -4.26938
upperneck 0.580007 -7.02893 4.0325
head 0.44806 -3.51633 1.93902
rclavicle -1.07344e-014 -4.77083e-015
rhumerus 39.4901 5.92539 11.3526
rradius 71.9283
rwrist -53.7384
rhand 4.04695 10.7527
rfingers 7.12502
rthumb 29.4605 -16.9309
lclavicle -1.07344e-014 -4.77083e-015
lhumerus 40.9754 -0.169669 -15.9415
lradius 79.9317
lwrist 32.5943
lhand 11.1282 25.2193
lfingers 7.12502
lthumb 36.1956 51.4875
rfemur -20.3799 -1.45272 17.3442
rtibia 42.1153
rfoot -19.5614 -13.1221
rtoes -17.3379
lfemur -15.9754 5.35368 -19.25
ltibia 38.0312
lfoot -20.4563 8.98035
ltoes -20.3909
279
root -0.274839 17.4507 -1.08608 -0.741217 -6.94078 2.95979
lowerback 9.68664 2.16764 -1.5702
upperback 7.73656 2.73617 0.66569
thorax 2.51787 1.28248 1.36696
lowerneck 0.77047 -5.32598 -4.3226
upperneck 0.495407 -7.1458 4.13343
head 0.344881 -3.57965 1.99682
rclavicle -3.3197e-014 -7.95139e-016
rhumerus 39.5886 5.89206 11.3656
rradius 71.9896
rwrist -53.7127
rhand 4.26792 10.8328
rfingers 7.12502
rthumb 29.6715 -16.8135
lclavicle -3.3197e-014 -7.95139e-016
lhumerus 41.0677 -0.190788 -16.0504
lradius 80.0947
lwrist 32.8365
lhand 11.4245 25.3199
lfingers 7.12502
lthumb 36.4762 51.518
rfemur -20.209 -1.26668 17.3112
rtibia 41.995
rfoot -19.7125 -12.732
rtoes -15.3481
lfemur -15.6956 5.42646 -19.2801
ltibia 37.8846
lfoot -20.5691 9.13608
ltoes -20.1491
280
root -0.266849 17.4577 -1.06541 -0.774648 -7.25396 3.02654
lowerback 9.6357 2.20866 -1.55553
upperback 7.8951 2.79297 0.553045
thorax 2.71725 1.31098 1.24411
lowerneck -0.508857 -5.53088 -4.33321
upperneck 0.980309 -7.38619 4.24333
head 0.730332 -3.68666 1.98338
rclavicle -1.59028e-014 3.97569e-015
rhumerus 39.4458 4.98773 11.1729
rradius 71.9106
rwrist -53.6674
rhand 4.45902 10.7926
rfingers 7.12502
rthumb 29.8538 -16.8211
lclavicle -1.59028e-014 3.97569e-015
lhumerus 41.1448 0.677721 -16.1133
lradius 80.1965
lwrist 33.0679
lhand 11.805 25.4997
lfingers 7.12502
lthumb 36.8363 51.6063
rfemur -20.087 -1.0821 17.2003
rtibia 41.8245
rfoot -19.7026 -12.5141
rtoes -14.867
lfemur -15.4229 5.49511 -19.3857
ltibia 37.6763
lfoot -20.6985 9.32563
ltoes -19.7651
281
root -0.258662 17.4667 -1.04343 -0.821354 -7.58032 3.06233
lowerback 9.672 2.21399 -1.62708
upperback 7.71803 2.79406 0.472003
thorax 2.51136 1.31339 1.19418
lowerneck -0.715625 -5.63182 -4.22091
upperneck 1.3094 -7.52126 4.17574
head 0.86753 -3.75136 1.92839
rclavicle -3.63776e-014 9.54166e-015
rhumerus 39.4977 4.65262 11.0909
rradius 71.9516
rwrist -53.7117
rhand 4.39164 10.5177
rfingers 7.12502
rthumb 29.7895 -17.1074
lclavicle -3.63776e-014 9.54166e-015
lhumerus 41.2209 0.959691 -16.2399
lradius 80.3485
lwrist 33.359
lhand 12.0422 25.4819
lfingers 7.12502
lthumb 37.0606 51.5306
rfemur -19.9027 -0.880706 17.1289
rtibia 41.5972
rfoot -19.4812 -12.7697
rtoes -17.3396
lfemur -15.1076 5.58383 -19.4521
ltibia 37.4178
lfoot -20.7709 9.50624
ltoes -19.4314
282
root -0.248588 17.4762 -1.02076 -0.873775 -7.8556 3.00097
lowerback 9.90952 2.48571 -1.05433
upperback 7.99271 3.19358 0.0459736
thorax 2.71336 1.54544 0.402162
lowerneck -3.1218 -6.11736 -3.16233
upperneck 2.19802 -8.14985 4.04645
head 1.53682 -4.03053 1.60355
rclavicle -3.16068e-014 3.18055e-015
rhumerus 38.2187 3.50701 10.7591
rradius 71.8871
rwrist -53.829
rhand 4.28569 10.0152
rfingers 7.12502
rthumb 29.6884 -17.6281
lclavicle -3.16068e-014 3.18055e-015
lhumerus 42.4124 2.61747 -16.3061
lradius 80.2618
lwrist 33.5222
lhand 12.3135 25.4835
lfingers 7.12502
lthumb 37.3171 51.4653
rfemur -19.6639 -0.745401 17.161
rtibia 41.3373
rfoot -19.347 -12.7628
rtoes -17.69
lfemur -14.753 5.61992 -19.4138
ltibia 37.121
lfoot -20.8837 9.57427
ltoes -18.7976
283
root -0.239184 17.4881 -0.992347 -0.874601 -8.11454 2.90651
lowerback 9.68311 2.2087 -1.35481
upperback 7.59038 2.80503 0.324167
thorax 2.38963 1.33474 0.88499
lowerneck -1.88469 -5.86792 -3.97396
upperneck 2.04494 -7.81816 4.07632
head 1.29924 -3.88519 1.80152
rclavicle -5.56597e-015 -1.70955e-014
rhumerus 39.3521 3.43757 10.9665
rradius 71.9133
rwrist -53.9593
rhand 4.39511 9.83144
rfingers 7.12502
rthumb 29.7928 -17.7931
lclavicle -5.56597e-015 -1.70955e-014
lhumerus 41.6874 2.21065 -16.2098
lradius 80.327
lwrist 34.0187
lhand 12.5839 25.7361
lfingers 7.12502
lthumb 37.5728 51.6504
rfemur -19.4161 -0.590097 17.2264
rtibia 41.0275
rfoot -19.324 -12.5335
rtoes -16.6068
lfemur -14.4179 5.6321 -19.3487
ltibia 36.8175
lfoot -21.0021 9.68171
ltoes -18.3272
284
root -0.230146 17.5005 -0.963767 -0.847304 -8.36736 2.8744
lowerback 9.52231 2.33007 -1.17718
upperback 7.58359 2.98226 0.140562
thorax 2.48424 1.43449 0.589566
lowerneck -2.48578 -6.1135 -3.49673
upperneck 2.28492 -8.14861 4.02694
head 1.46895 -4.03943 1.67286
rclavicle -2.20651e-014 6.75868e-015
rhumerus 38.7805 2.74717 10.8764
rradius 71.8448
rwrist -53.8796
rhand 4.63052 9.88947
rfingers 7.12502
rthumb 30.0175 -17.6946
lclavicle -2.20651e-014 6.75868e-015
lhumerus 42.3525 3.14964 -16.1975
lradius 80.2462
lwrist 34.4969
lhand 12.9211 25.9894
lfingers 7.12502
lthumb 37.8914 51.8181
rfemur -19.1884 -0.424206 17.2223
rtibia 40.6866
rfoot -19.2494 -12.4125
rtoes -16.5228
lfemur -14.1286 5.60331 -19.3599
ltibia 36.4962
lfoot -21.1097 9.88279
ltoes -17.9711
285
root -0.220232 17.5123 -0.939113 -0.795861 -8.6364 2.87373
lowerback 9.30666 2.1171 -1.43451
upperback 7.39081 2.68386 0.307504
thorax 2.38528 1.27199 0.930909
lowerneck -2.38816 -5.96725 -4.15931
upperneck 2.46108 -7.93971 4.10896
head 1.53631 -3.94058 1.8202
rclavicle 1.09332e-014 2.38542e-014
rhumerus 39.5843 2.13562 11.0151
rradius 71.7751
rwrist -53.813
rhand 4.75214 10.1347
rfingers 7.12502
rthumb 30.1335 -17.4283
lclavicle 1.09332e-014 2.38542e-014
lhumerus 41.7291 3.42378 -16.1236
lradius 80.3045
lwrist 35.132
lhand 13.2357 26.2713
lfingers 7.12502
lthumb 38.1885 52.019
rfemur -19.0141 -0.19602 17.1629
rtibia 40.32
rfoot -19.3278 -12.073
rtoes -14.6829
lfemur -13.882 5.54939 -19.4186
ltibia 36.1703
lfoot -21.0941 10.1852
ltoes -17.9437
286
root -0.209924 17.5264 -0.912599 -0.805228 -8.89099 2.90791
lowerback 9.20483 2.07437 -1.52321
upperback 7.31117 2.62269 0.295474
thorax 2.35563 1.23866 0.974337
lowerneck -2.92059 -6.00466 -4.20358
upperneck 2.85803 -7.978 4.06471
head 1.76012 -3.95407 1.79176
rclavicle 2.56432e-014 -9.54166e-015
rhumerus 39.6741 1.36544 10.9944
rradius 71.6918
rwrist -53.7991
rhand 4.71474 10.0787
rfingers 7.12502
rthumb 30.0979 -17.4908
lclavicle 2.56432e-014 -9.54166e-015
lhumerus 41.7406 4.18309 -15.9603
lradius 80.2902
lwrist 35.6742
lhand 13.4851 26.3956
lfingers 7.12502
lthumb 38.4239 52.0782
rfemur -18.7614 -0.0269189 17.0648
rtibia 39.9375
rfoot -19.4638 -11.6692
rtoes -13.0849
lfemur -13.5452 5.55476 -19.5152
ltibia 35.8179
lfoot -21.0207 10.5794
ltoes -18.7717
287
root -0.200231 17.5446 -0.883177 -0.744528 -9.12759 2.84225
lowerback 8.97049 1.93505 -1.80624
upperback 6.6242 2.42136 0.423141
thorax 1.75278 1.13548 1.27177
lowerneck -0.824835 -5.81776 -4.29328
upperneck 2.5029 -7.78669 3.95836
head 1.26932 -3.88343 1.84553
rclavicle -2.26615e-014 2.78299e-014
rhumerus 40.2498 1.69973 11.0699
rradius 71.7383
rwrist -54.0851
rhand 4.55253 9.88272
rfingers 7.12502
rthumb 29.9431 -17.7148
lclavicle -2.26615e-014 2.78299e-014
lhumerus 41.6204 3.70005 -15.8712
lradius 80.3968
lwrist 36.0928
lhand 13.4737 26.43
lfingers 7.12502
lthumb 38.413 52.1156
rfemur -18.5135 0.0975097 17.1069
rtibia 39.5337
rfoot -19.3738 -11.4967
rtoes -13.1801
lfemur -13.2477 5.57267 -19.5077
ltibia 35.4268
lfoot -21.0086 10.8844
ltoes -19.2681
288
root -0.189434 17.5654 -0.851771 -0.617619 -9.34872 2.77747
lowerback 8.67838 1.82015 -1.8338
upperback 6.36098 2.27251 0.455114
thorax 1.64052 1.0627 1.3353
lowerneck -0.575207 -5.76647 -4.38636
upperneck 2.63959 -7.72814 3.93438
head 1.27021 -3.85777 1.86105
rclavicle -6.95746e-015 3.57812e-015
rhumerus 40.5308 1.13198 10.9989
rradius 71.6643
rwrist -54.3589
rhand 4.64963 9.74674
rfingers 7.12502
rthumb 30.0357 -17.8341
lclavicle -6.95746e-015 3.57812e-015
lhumerus 41.6101 4.14752 -15.6765
lradius 80.331
lwrist 36.4026
lhand 13.4307 26.5261
lfingers 7.12502
lthumb 38.3725 52.223
rfemur -18.3065 0.233708 17.1428
rtibia 39.0967
rfoot -19.2086 -11.4582
rtoes -13.5102
lfemur -12.9962 5.57274 -19.5146
ltibia 34.9812
lfoot -20.9463 11.1692
ltoes -19.5441
289
root -0.177111 17.5864 -0.81958 -0.530698 -9.61002 2.74729
lowerback 8.48585 1.88769 -1.53457
upperback 6.46621 2.38584 0.270076
thorax 1.87066 1.12979 0.977675
lowerneck -1.96776 -5.97018 -4.10381
upperneck 3.24485 -7.9727 3.93402
head 1.70513 -3.96149 1.75623
rclavicle -5.06901e-015 -1.59028e-014
rhumerus 40.0721 -0.0880993 10.7851
rradius 71.5164
rwrist -54.5789
rhand 4.79832 9.52507
rfingers 7.12502
rthumb 30.1776 -18.0299
lclavicle -5.06901e-015 -1.59028e-014
lhumerus 42.1924 5.52471 -15.4006
lradius 80.0857
lwrist 36.6547
lhand 13.3862 26.5544
lfingers 7.12502
lthumb 38.3305 52.2629
rfemur -18.081 0.390371 17.1175
rtibia 38.6462
rfoot -19.0912 -11.3957
rtoes -13.6744
lfemur -12.6534 5.53432 -19.5595
ltibia 34.4707
lfoot -20.9337 11.426
ltoes -19.3474
290
root -0.164662 17.6071 -0.789705 -0.469608 -9.93029 2.74863
lowerback 8.29829 1.84742 -1.51589
upperback 6.33778 2.3366 0.234917
thorax 1.84288 1.10738 0.937935
lowerneck -2.42796 -5.97269 -4.16274
upperneck 3.70429 -7.96832 3.89972
head 1.93707 -3.95479 1.73645
rclavicle 2.22639e-014 -1.39149e-014
rhumerus 40.2535 -0.938295 10.5782
rradius 71.298
rwrist -54.7289
rhand 4.85551 9.31534
rfingers 7.12502
rthumb 30.2321 -18.2296
lclavicle 2.22639e-014 -1.39149e-014
lhumerus 42.3057 6.31416 -15.1345
lradius 79.9398
lwrist 36.8269
lhand 13.2387 26.5588
lfingers 7.12502
lthumb 38.1912 52.3057
rfemur -17.8377 0.606914 17.0583
rtibia 38.1687
rfoot -18.9021 -11.461
rtoes -14.9194
lfemur -12.2527 5.55716 -19.6405
ltibia 33.8827
lfoot -20.8885 11.7338
ltoes -19.3124
291
root -0.154399 17.6294 -0.759846 -0.378566 -10.287 2.78073
lowerback 8.05036 1.71563 -1.73121
upperback 6.00423 2.1521 0.301388
thorax 1.62643 1.01117 1.14039
lowerneck -2.00909 -5.8223 -4.41757
upperneck 3.95716 -7.77683 3.85135
head 1.94657 -3.86805 1.78074
rclavicle 1.49089e-015 -8.74653e-015
rhumerus 40.8425 -1.48012 10.3209
rradius 71.1047
rwrist -54.8091
rhand 4.72421 9.01647
rfingers 7.12502
rthumb 30.1069 -18.5514
lclavicle 1.49089e-015 -8.74653e-015
lhumerus 42.0395 6.65409 -14.8797
lradius 79.9192
lwrist 37.1281
lhand 13.216 26.6967
lfingers 7.12502
lthumb 38.1699 52.4495
rfemur -17.6038 0.90342 16.9597
rtibia 37.6721
rfoot -18.7987 -11.4123
rtoes -15.6086
lfemur -11.8521 5.61029 -19.753
ltibia 33.2248
lfoot -20.8236 12.0136
ltoes -19.0732
292
root -0.145239 17.6536 -0.726001 -0.308323 -10.6213 2.87976
lowerback 7.83889 1.62599 -1.97712
upperback 5.63801 2.02168 0.310417
thorax 1.35781 0.944274 1.2955
lowerneck -1.53929 -5.71702 -4.43931
upperneck 4.18878 -7.65148 3.69341
head 1.92581 -3.81363 1.74828
rclavicle -1.45113e-014 6.75868e-015
rhumerus 41.1715 -1.98032 10.0619
rradius 71.0396
rwrist -54.9648
rhand 4.52603 8.60335
rfingers 7.12502
rthumb 29.9178 -18.9988
lclavicle -1.45113e-014 6.75868e-015
lhumerus 41.9235 7.06047 -14.5597
lradius 79.9164
lwrist 37.4644
lhand 13.2651 26.8158
lfingers 7.12502
lthumb 38.2161 52.5559
rfemur -17.3313 1.1686 16.7868
rtibia 37.1564
rfoot -18.8599 -10.9499
rtoes -13.2634
lfemur -11.403 5.63382 -19.9343
ltibia 32.5345
lfoot -20.7825 12.2276
ltoes -18.6917
